<?xml version="1.0" encoding="UTF-8"?>
<svg id="_레이어_2" data-name="레이어 2" xmlns="http://www.w3.org/2000/svg" xmlns:xlink="http://www.w3.org/1999/xlink" viewBox="0 0 151.47 106.35">
  <defs>
      <style>
            .cls-1 {
                        fill: none;
                                stroke: #040000;
                                        stroke-miterlimit: 11.34;
                                                stroke-width: 6.75px;
                                                      }

                                                            .cls-2 {
                                                                        isolation: isolate;
                                                                              }
                                                                                  </style>
                                                                                    </defs>
                                                                                      <g id="_레이어_1-2" data-name="레이어 1">
                                                                                          <path d="m0,101.82c.08-.1.16-.2.23-.3C19.08,69.15,37.93,36.78,56.78,4.41c.08-.13.16-.27.26-.44.08.13.16.23.22.34,16.7,28.09,33.4,56.18,50.1,84.27,1.25,2.1,2.5,4.2,3.74,6.3.12.21.25.3.5.3,3.44,0,6.88,0,10.33,0,.1,0,.21-.01.39-.02-14.96-24.27-29.9-48.49-44.85-72.74,1.92-1.19,3.83-2.36,5.75-3.55.19.3.36.57.53.84,15.43,25.03,30.86,50.06,46.29,75.09.17.28.35.39.68.38,4.51-.01,9.02,0,13.53,0h.45v-18.73h-.45c-4.62,0-9.24,0-13.85,0-.32,0-.49-.1-.66-.37-15.69-24.43-31.39-48.85-47.08-73.27-.08-.12-.15-.24-.25-.41.16,0,.27-.02.38-.02,8.76,0,17.51,0,26.27,0,.27,0,.4.1.54.31,12.38,19.44,24.76,38.88,37.14,58.32.26.41.52.83.81,1.28-.17,0-.3.02-.42.02-2.4,0-4.8,0-7.2,0-.29,0-.45-.1-.6-.34-11.11-17.46-22.23-34.91-33.34-52.37-.23-.36-.46-.48-.88-.48-3.3.02-6.6.01-9.9.01h-.44c.09.16.16.27.23.38,12.82,19.94,25.64,39.88,38.45,59.83.17.26.34.33.64.33,5.64,0,11.27,0,16.91,0,.15,0,.31,0,.47,0v32.26h-.47c-5.77,0-11.54,0-17.31,0-8.6,0-17.2,0-25.8,0-.33,0-.51-.1-.67-.38-16.62-27.97-33.24-55.93-49.86-83.89-.07-.12-.15-.24-.25-.39-15.12,25.96-30.21,51.88-45.34,77.85h67.52v-4.41c4.53,2.62,9,5.2,13.51,7.81-.15.1-.27.17-.39.24-4.24,2.45-8.48,4.9-12.72,7.35-.11.06-.21.14-.32.22h-.07v-4.41h-.51c-26.12,0-52.24,0-78.37,0-.14,0-.29.01-.43.02,0-.05,0-.1,0-.14Z"/>
                                                                                              <circle id="path1472-0-8-1-6" class="cls-1" cx="73.41" cy="9.2" r="5.82"/>
                                                                                                  <image id="image4094-1-8-8" class="cls-2" width="512" height="512" transform="translate(35.73 47.93) scale(.08)" xlink:href="/images/internal_chip.png"/>
                                                                                                    </g>
                                                                                                    </svg>
